<?xml version="1.0"?><svg xmlns="http://www.w3.org/2000/svg" version="1.1" width="303" height="144" viewBox="0 0 202 105.6"><g><rect x="0" y="0" width="202" height="96" fill="white"/><g transform="translate(13 10)"><g><rect x="10" y="0" width="2" height="76" fill="#535355"/><rect x="13" y="0" width="1" height="76" fill="#535355"/><rect x="16" y="0" width="1" height="76" fill="#535355"/><rect x="21" y="0" width="2" height="76" fill="#535355"/><rect x="24" y="0" width="1" height="76" fill="#535355"/><rect x="28" y="0" width="1" height="76" fill="#535355"/><rect x="32" y="0" width="1" height="76" fill="#535355"/><rect x="37" y="0" width="2" height="76" fill="#535355"/><rect x="40" y="0" width="1" height="76" fill="#535355"/><rect x="43" y="0" width="4" height="76" fill="#535355"/><rect x="48" y="0" width="1" height="76" fill="#535355"/><rect x="51" y="0" width="1" height="76" fill="#535355"/><rect x="54" y="0" width="1" height="76" fill="#535355"/><rect x="56" y="0" width="2" height="76" fill="#535355"/><rect x="60" y="0" width="1" height="76" fill="#535355"/><rect x="65" y="0" width="2" height="76" fill="#535355"/><rect x="68" y="0" width="2" height="76" fill="#535355"/><rect x="72" y="0" width="2" height="76" fill="#535355"/><rect x="76" y="0" width="1" height="76" fill="#535355"/><rect x="79" y="0" width="4" height="76" fill="#535355"/><rect x="85" y="0" width="1" height="76" fill="#535355"/><rect x="87" y="0" width="1" height="76" fill="#535355"/><rect x="89" y="0" width="4" height="76" fill="#535355"/><rect x="95" y="0" width="1" height="76" fill="#535355"/><rect x="98" y="0" width="2" height="76" fill="#535355"/><rect x="101" y="0" width="2" height="76" fill="#535355"/><rect x="105" y="0" width="2" height="76" fill="#535355"/><rect x="109" y="0" width="1" height="76" fill="#535355"/><rect x="111" y="0" width="1" height="76" fill="#535355"/><rect x="115" y="0" width="2" height="76" fill="#535355"/><rect x="120" y="0" width="2" height="76" fill="#535355"/><rect x="125" y="0" width="1" height="76" fill="#535355"/><rect x="128" y="0" width="1" height="76" fill="#535355"/><rect x="131" y="0" width="2" height="76" fill="#535355"/><rect x="136" y="0" width="1" height="76" fill="#535355"/><rect x="139" y="0" width="1" height="76" fill="#535355"/><rect x="142" y="0" width="1" height="76" fill="#535355"/><rect x="147" y="0" width="2" height="76" fill="#535355"/><rect x="150" y="0" width="1" height="76" fill="#535355"/><rect x="153" y="0" width="2" height="76" fill="#535355"/><rect x="158" y="0" width="3" height="76" fill="#535355"/><rect x="162" y="0" width="1" height="76" fill="#535355"/><rect x="164" y="0" width="2" height="76" fill="#535355"/><text x="88" y="88" text-anchor="middle" font-family="monospace" font-size="12" fill="black">Give us A++</text></g><defs>
			<linearGradient id="black" x1="0" x2="0" y1="0" y2="1">
				<stop offset="0%" stop-color="#000"/>
				<stop offset="100%" stop-color="#000"/>
			</linearGradient>
			<linearGradient id="navyBlue" x1="0" x2="0" y1="0" y2="1">
				<stop offset="0%" stop-color="#00379c"/>
				<stop offset="100%" stop-color="#00379c"/>
			</linearGradient>
			<linearGradient id="midnightGreen" x1="0" x2="0" y1="0" y2="1">
				<stop offset="0%" stop-color="#008000"/>
				<stop offset="100%" stop-color="#008000"/>
			</linearGradient>
			<linearGradient id="holo" x1="0" x2="0" y1="0" y2="1">
				<stop offset="0%" stop-color="#ae00ff"/>
				<stop offset="100%" stop-color="#009dff"/>
			</linearGradient>
			<linearGradient id="gradient" x1="0" x2="0" y1="0" y2="1">
				<stop offset="0%" stop-color="#d85bc6"/>
				<stop offset="100%" stop-color="#5c4cff"/>
			</linearGradient>
			<linearGradient id="neon" x1="0" x2="0" y1="0" y2="1">
				<stop offset="0%" stop-color="#00c400"/>
				<stop offset="100%" stop-color="#00612a"/>
			</linearGradient>
		</defs></g></g></svg>